<svg data-v-423bf9ae="" xmlns="http://www.w3.org/2000/svg" viewBox="0 0 415.34690827064304 60" class="font"><!----><!----><!----><g data-v-423bf9ae="" id="b934278d-8bc4-4fd4-909f-3d995de8e4d1" fill="white" transform="matrix(6.1224488604322,0,0,6.1224488604322,-0.000007480048083152724,-4.285714427340487)"><path d="M2.93 8.34L3.91 8.34L3.91 9.39Q3.91 9.81 3.65 10.12Q3.39 10.43 2.98 10.50L2.98 10.50L0.94 10.50Q0.53 10.43 0.27 10.12Q0 9.81 0 9.39L0 9.39L0 1.81Q0 1.39 0.27 1.08Q0.53 0.77 0.94 0.70L0.94 0.70L2.98 0.70Q3.39 0.77 3.65 1.08Q3.91 1.39 3.91 1.81L3.91 1.81L3.91 2.86L2.93 2.86L2.93 1.81Q2.93 1.67 2.80 1.67L2.80 1.67L1.12 1.67Q0.98 1.67 0.98 1.81L0.98 1.81L0.98 9.39Q0.98 9.53 1.12 9.53L1.12 9.53L2.80 9.53Q2.93 9.53 2.93 9.39L2.93 9.39L2.93 8.34ZM5.80 0.70L5.80 10.50L4.82 10.50L4.82 0.70L5.80 0.70ZM10.43 0.70L10.43 1.68L9.06 1.68L9.06 10.50L8.08 10.50L8.08 1.68L6.71 1.68L6.71 0.70L10.43 0.70ZM12.32 0.70L12.32 10.50L11.34 10.50L11.34 0.70L12.32 0.70ZM16.76 1.68L14.21 1.68L14.21 4.62L16.25 4.62L16.25 5.60L14.21 5.60L14.21 9.52L16.76 9.52L16.76 10.50L13.23 10.50L13.23 4.62L14.21 4.62L13.23 1.68L13.23 0.70L16.76 0.70L16.76 1.68ZM21.43 2.86L20.45 2.86L20.45 1.81Q20.45 1.67 20.31 1.67L20.31 1.67L18.79 1.67Q18.65 1.67 18.65 1.81L18.65 1.81L18.65 4.47Q18.65 4.56 18.73 4.59L18.73 4.59L20.31 4.59Q20.79 4.59 21.11 4.92Q21.43 5.25 21.43 5.71L21.43 5.71L21.43 9.39Q21.43 9.81 21.17 10.12Q20.90 10.43 20.50 10.50L20.50 10.50L18.61 10.50Q18.20 10.43 17.93 10.12Q17.67 9.81 17.67 9.39L17.67 9.39L17.67 8.34L18.65 8.34L18.65 9.39Q18.65 9.53 18.79 9.53L18.79 9.53L20.31 9.53Q20.45 9.53 20.45 9.39L20.45 9.39L20.45 5.71Q20.45 5.61 20.37 5.59L20.37 5.59L18.79 5.59Q18.33 5.59 18.00 5.26Q17.67 4.93 17.67 4.47L17.67 4.47L17.67 1.81Q17.67 1.39 17.93 1.08Q18.20 0.77 18.61 0.70L18.61 0.70L20.50 0.70Q20.90 0.77 21.17 1.08Q21.43 1.39 21.43 1.81L21.43 1.81L21.43 2.86ZM27.58 8.34L28.56 8.34L28.56 9.39Q28.56 9.81 28.30 10.12Q28.04 10.43 27.64 10.50L27.64 10.50L25.59 10.50Q25.19 10.43 24.92 10.12Q24.65 9.81 24.65 9.39L24.65 9.39L24.65 1.81Q24.65 1.39 24.92 1.08Q25.19 0.77 25.59 0.70L25.59 0.70L27.64 0.70Q28.04 0.77 28.30 1.08Q28.56 1.39 28.56 1.81L28.56 1.81L28.56 2.86L27.58 2.86L27.58 1.81Q27.58 1.67 27.45 1.67L27.45 1.67L25.77 1.67Q25.63 1.67 25.63 1.81L25.63 1.81L25.63 9.39Q25.63 9.53 25.77 9.53L25.77 9.53L27.45 9.53Q27.58 9.53 27.58 9.39L27.58 9.39L27.58 8.34ZM30.41 0.70L32.47 0.70Q32.87 0.77 33.14 1.08Q33.40 1.39 33.40 1.81L33.40 1.81L33.40 9.39Q33.40 9.81 33.14 10.12Q32.87 10.43 32.47 10.50L32.47 10.50L30.41 10.50Q30.00 10.43 29.74 10.12Q29.47 9.81 29.47 9.39L29.47 9.39L29.47 1.81Q29.47 1.39 29.74 1.08Q30.00 0.77 30.41 0.70L30.41 0.70ZM32.42 9.39L32.42 1.81Q32.42 1.67 32.30 1.67L32.30 1.67L30.59 1.67Q30.45 1.67 30.45 1.81L30.45 1.81L30.45 9.39Q30.45 9.53 30.59 9.53L30.59 9.53L32.30 9.53Q32.42 9.53 32.42 9.39L32.42 9.39ZM35.29 9.51L37.84 9.51L37.84 10.50L34.31 10.50L34.31 9.51L34.31 0.70L35.29 0.70L35.29 9.51ZM39.75 9.51L42.29 9.51L42.29 10.50L38.77 10.50L38.77 9.51L38.77 0.70L39.75 0.70L39.75 9.51ZM46.75 1.68L44.20 1.68L44.20 4.62L46.24 4.62L46.24 5.60L44.20 5.60L44.20 9.52L46.75 9.52L46.75 10.50L43.22 10.50L43.22 4.62L44.20 4.62L43.22 1.68L43.22 0.70L46.75 0.70L46.75 1.68ZM50.58 8.34L51.56 8.34L51.56 9.39Q51.56 9.81 51.30 10.12Q51.04 10.43 50.64 10.50L50.64 10.50L48.59 10.50Q48.19 10.43 47.92 10.12Q47.66 9.81 47.66 9.39L47.66 9.39L47.66 1.81Q47.66 1.39 47.92 1.08Q48.19 0.77 48.59 0.70L48.59 0.70L50.64 0.70Q51.04 0.77 51.30 1.08Q51.56 1.39 51.56 1.81L51.56 1.81L51.56 2.86L50.58 2.86L50.58 1.81Q50.58 1.67 50.46 1.67L50.46 1.67L48.78 1.67Q48.64 1.67 48.64 1.81L48.64 1.81L48.64 9.39Q48.64 9.53 48.78 9.53L48.78 9.53L50.46 9.53Q50.58 9.53 50.58 9.39L50.58 9.39L50.58 8.34ZM56.20 0.70L56.20 1.68L54.82 1.68L54.82 10.50L53.84 10.50L53.84 1.68L52.47 1.68L52.47 0.70L56.20 0.70ZM58.09 0.70L58.09 10.50L57.11 10.50L57.11 0.70L58.09 0.70ZM62.48 0.70L63.48 0.70L61.91 10.50L60.56 10.50L59.00 0.70L59.99 0.70L61.24 8.54L62.48 0.70ZM67.84 1.68L65.30 1.68L65.30 4.62L67.34 4.62L67.34 5.60L65.30 5.60L65.30 9.52L67.84 9.52L67.84 10.50L64.32 10.50L64.32 4.62L65.30 4.62L64.32 1.68L64.32 0.70L67.84 0.70L67.84 1.68Z"></path></g><!----><!----></svg>